<svg viewBox="0 0 159 42" fill="none" xmlns="http://www.w3.org/2000/svg">
<rect width="42" height="42" fill="white"/>
<path d="M61.208 28.336C59.168 28.336 57.488 27.16 57.488 24.784C57.488 21.952 60.008 20.608 65.648 19.96C65.696 18.064 65.168 16.096 62.744 16.096C61.04 16.096 59.6 16.912 58.688 17.584L58.088 16.552C59.048 15.88 60.824 14.896 62.912 14.896C65.96 14.896 67.064 17.056 67.064 19.888V28H65.888L65.744 26.392H65.672C64.4 27.424 62.864 28.336 61.208 28.336ZM61.496 27.136C62.912 27.136 64.16 26.464 65.648 25.168V21.016C60.608 21.568 58.904 22.768 58.904 24.712C58.904 26.464 60.08 27.136 61.496 27.136ZM74.669 28.336C72.773 28.336 71.117 27.544 69.941 26.56L70.709 25.552C71.789 26.464 72.965 27.16 74.717 27.16C76.661 27.16 77.645 26.056 77.645 24.76C77.645 23.224 76.037 22.552 74.549 22C72.677 21.328 70.661 20.536 70.661 18.328C70.661 16.456 72.149 14.896 74.837 14.896C76.253 14.896 77.645 15.472 78.557 16.264L77.837 17.2C76.973 16.576 76.085 16.048 74.837 16.048C72.917 16.048 72.029 17.128 72.029 18.28C72.029 19.672 73.445 20.2 74.933 20.776C76.901 21.52 79.037 22.192 79.037 24.664C79.037 26.656 77.501 28.336 74.669 28.336ZM85.1846 28.336C83.1446 28.336 81.4646 27.16 81.4646 24.784C81.4646 21.952 83.9846 20.608 89.6246 19.96C89.6726 18.064 89.1446 16.096 86.7206 16.096C85.0166 16.096 83.5766 16.912 82.6646 17.584L82.0646 16.552C83.0246 15.88 84.8006 14.896 86.8886 14.896C89.9366 14.896 91.0406 17.056 91.0406 19.888V28H89.8646L89.7206 26.392H89.6486C88.3766 27.424 86.8406 28.336 85.1846 28.336ZM85.4726 27.136C86.8886 27.136 88.1366 26.464 89.6246 25.168V21.016C84.5846 21.568 82.8806 22.768 82.8806 24.712C82.8806 26.464 84.0566 27.136 85.4726 27.136ZM98.6456 28.336C96.7496 28.336 95.0936 27.544 93.9176 26.56L94.6856 25.552C95.7656 26.464 96.9416 27.16 98.6936 27.16C100.638 27.16 101.622 26.056 101.622 24.76C101.622 23.224 100.014 22.552 98.5256 22C96.6536 21.328 94.6376 20.536 94.6376 18.328C94.6376 16.456 96.1256 14.896 98.8136 14.896C100.23 14.896 101.622 15.472 102.534 16.264L101.814 17.2C100.95 16.576 100.062 16.048 98.8136 16.048C96.8936 16.048 96.0056 17.128 96.0056 18.28C96.0056 19.672 97.4216 20.2 98.9096 20.776C100.878 21.52 103.014 22.192 103.014 24.664C103.014 26.656 101.478 28.336 98.6456 28.336ZM106.329 28V15.208H107.745V28H106.329ZM107.049 12.208C106.401 12.208 105.945 11.776 105.945 11.032C105.945 10.384 106.401 9.928 107.049 9.928C107.697 9.928 108.153 10.384 108.153 11.032C108.153 11.776 107.697 12.208 107.049 12.208ZM116.717 34.12C113.501 34.12 111.437 32.752 111.437 30.592C111.437 29.488 112.181 28.36 113.357 27.544V27.448C112.709 27.04 112.205 26.368 112.205 25.384C112.205 24.256 113.021 23.44 113.621 23.008V22.912C112.805 22.216 111.989 20.968 111.989 19.432C111.989 16.744 114.029 14.896 116.549 14.896C117.269 14.896 117.869 15.04 118.277 15.208H122.621V16.36H119.765C120.533 17.056 121.061 18.136 121.061 19.456C121.061 22.072 119.069 23.944 116.549 23.944C115.853 23.944 115.061 23.752 114.485 23.44C113.957 23.872 113.501 24.4 113.501 25.192C113.501 26.104 114.029 26.824 115.901 26.824H118.589C121.469 26.824 122.837 27.736 122.837 29.752C122.837 32.008 120.461 34.12 116.717 34.12ZM116.549 22.888C118.253 22.888 119.717 21.496 119.717 19.432C119.717 17.32 118.301 16 116.549 16C114.821 16 113.381 17.296 113.381 19.432C113.381 21.496 114.845 22.888 116.549 22.888ZM116.861 33.04C119.669 33.04 121.445 31.48 121.445 29.944C121.445 28.576 120.437 28.072 118.565 28.072H115.949C115.637 28.072 114.989 28.024 114.341 27.856C113.213 28.624 112.757 29.56 112.757 30.424C112.757 31.984 114.269 33.04 116.861 33.04ZM129.244 28.336C126.58 28.336 125.356 26.704 125.356 23.392V15.208H126.748V23.224C126.748 25.864 127.588 27.088 129.556 27.088C131.02 27.088 132.1 26.32 133.516 24.568V15.208H134.932V28H133.756L133.612 25.888H133.564C132.316 27.352 130.996 28.336 129.244 28.336ZM139.681 28V15.208H140.857L141.025 17.584H141.073C141.937 16 143.209 14.896 144.697 14.896C145.201 14.896 145.561 14.944 145.993 15.16L145.705 16.408C145.273 16.24 145.033 16.192 144.505 16.192C143.401 16.192 142.033 17.032 141.097 19.432V28H139.681ZM152.944 28.336C149.632 28.336 146.968 25.84 146.968 21.64C146.968 17.464 149.704 14.896 152.584 14.896C155.68 14.896 157.552 17.104 157.552 20.848C157.552 21.184 157.528 21.52 157.48 21.856H148.408C148.456 24.952 150.304 27.136 153.088 27.136C154.456 27.136 155.512 26.704 156.472 26.032L157.024 27.064C155.992 27.712 154.768 28.336 152.944 28.336ZM148.384 20.752H156.256C156.256 17.656 154.84 16.072 152.608 16.072C150.52 16.072 148.672 17.8 148.384 20.752Z" fill="white"/>
</svg>
