<svg width="159" height="42" viewBox="0 0 159 42" fill="none" xmlns="http://www.w3.org/2000/svg">
<g clip-path="url(#clip0_2_25)">
<mask id="mask0_2_25" style="mask-type:luminance" maskUnits="userSpaceOnUse" x="0" y="0" width="42" height="42">
<path d="M42 0H0V42H42V0Z" fill="white"/>
</mask>
<g mask="url(#mask0_2_25)">
<path d="M42 21C42 32.598 32.598 42 21 42C9.40201 42 0 32.598 0 21C0 9.40201 9.40201 0 21 0C32.598 0 42 9.40201 42 21Z" fill="#4D4D4D"/>
<path d="M29.7417 25.1502C31.7137 25.1502 33.3123 22.6658 33.3123 19.6012C33.3123 16.5366 31.7137 14.0522 29.7417 14.0522C27.7697 14.0522 26.171 16.5366 26.171 19.6012C26.171 22.6658 27.7697 25.1502 29.7417 25.1502Z" fill="#D9D9D9"/>
<path d="M12.2583 25.1502C14.2304 25.1502 15.829 22.6658 15.829 19.6012C15.829 16.5366 14.2304 14.0522 12.2583 14.0522C10.2863 14.0522 8.68768 16.5366 8.68768 19.6012C8.68768 22.6658 10.2863 25.1502 12.2583 25.1502Z" fill="#D9D9D9"/>
<path fill-rule="evenodd" clip-rule="evenodd" d="M5.87262 20.6706C5.92123 20.6706 5.96307 20.6362 5.97352 20.5887C6.61899 17.6471 9.24025 15.4455 12.3757 15.4455C15.4328 15.4455 18.0012 17.5386 18.7259 20.3699C18.7408 20.4282 18.8018 20.4624 18.8589 20.4434L20.9676 19.7405C20.9886 19.7335 21.0113 19.7335 21.0324 19.7405L23.141 20.4434C23.1981 20.4624 23.2592 20.4282 23.2741 20.3699C23.9987 17.5386 26.567 15.4455 29.6242 15.4455C32.6198 15.4455 35.146 17.455 35.9283 20.1996C35.941 20.244 35.9814 20.2751 36.0277 20.2751H37.2792C37.3358 20.2751 37.3816 20.321 37.3816 20.3776V21.5022C37.3816 21.5587 37.3358 21.6046 37.2792 21.6046H36.2757C36.2167 21.6046 36.17 21.6542 36.1725 21.7131C36.1766 21.8082 36.1787 21.9039 36.1787 22C36.1787 25.6199 33.2442 28.5545 29.6242 28.5545C26.0043 28.5545 23.0698 25.6199 23.0698 22C23.0698 21.8643 23.0739 21.7295 23.082 21.5958C23.0849 21.5491 23.0563 21.506 23.0118 21.4912L21.0324 20.8314C21.0113 20.8244 20.9886 20.8244 20.9676 20.8314L18.9881 21.4912C18.9437 21.506 18.915 21.5491 18.9179 21.5958C18.926 21.7295 18.9301 21.8643 18.9301 22C18.9301 25.6199 15.9956 28.5545 12.3757 28.5545C8.79008 28.5545 5.87692 25.6754 5.82196 22.1029C5.82109 22.0463 5.77536 22 5.71876 22H4.72079C4.66421 22 4.61835 21.9541 4.61835 21.8976V20.773C4.61835 20.7164 4.66421 20.6706 4.72079 20.6706H5.87262ZM12.3757 16.4804C9.32733 16.4804 6.85614 18.9516 6.85614 22C6.85614 25.0483 9.32733 27.5195 12.3757 27.5195C15.424 27.5195 17.8952 25.0483 17.8952 22C17.8952 18.9516 15.424 16.4804 12.3757 16.4804ZM29.6242 16.4804C26.5759 16.4804 24.1047 18.9516 24.1047 22C24.1047 25.0483 26.5759 27.5195 29.6242 27.5195C32.6726 27.5195 35.1438 25.0483 35.1438 22C35.1438 18.9516 32.6726 16.4804 29.6242 16.4804Z" fill="#B7B27E"/>
<path fill-rule="evenodd" clip-rule="evenodd" d="M41.9892 20.3694C41.6558 9.06314 32.3856 0 20.9986 0C9.48386 0 0.133732 9.26745 0 20.7504C2.10071 19.8052 4.40866 18.1536 5.8842 16.5818C7.05303 15.3368 7.65752 14.0267 8.3056 12.6222C9.21106 10.6598 10.2016 8.51309 12.9354 6.10209C16.8453 2.6538 21.3456 1.04926 24.8177 2.93757C28.3315 2.47946 32.0679 7.26175 32.8598 9.27186C33.0698 9.80505 33.2168 10.3426 33.3706 10.9048C33.7965 12.4623 34.2744 14.2098 36.2884 16.5818C37.8073 18.3708 40.2185 19.7255 41.9892 20.3694Z" fill="#252525"/>
</g>
</g>
<path d="M61.208 28.336C59.168 28.336 57.488 27.16 57.488 24.784C57.488 21.952 60.008 20.608 65.648 19.96C65.696 18.064 65.168 16.096 62.744 16.096C61.04 16.096 59.6 16.912 58.688 17.584L58.088 16.552C59.048 15.88 60.824 14.896 62.912 14.896C65.96 14.896 67.064 17.056 67.064 19.888V28H65.888L65.744 26.392H65.672C64.4 27.424 62.864 28.336 61.208 28.336ZM61.496 27.136C62.912 27.136 64.16 26.464 65.648 25.168V21.016C60.608 21.568 58.904 22.768 58.904 24.712C58.904 26.464 60.08 27.136 61.496 27.136ZM74.669 28.336C72.773 28.336 71.117 27.544 69.941 26.56L70.709 25.552C71.789 26.464 72.965 27.16 74.717 27.16C76.661 27.16 77.645 26.056 77.645 24.76C77.645 23.224 76.037 22.552 74.549 22C72.677 21.328 70.661 20.536 70.661 18.328C70.661 16.456 72.149 14.896 74.837 14.896C76.253 14.896 77.645 15.472 78.557 16.264L77.837 17.2C76.973 16.576 76.085 16.048 74.837 16.048C72.917 16.048 72.029 17.128 72.029 18.28C72.029 19.672 73.445 20.2 74.933 20.776C76.901 21.52 79.037 22.192 79.037 24.664C79.037 26.656 77.501 28.336 74.669 28.336ZM85.1846 28.336C83.1446 28.336 81.4646 27.16 81.4646 24.784C81.4646 21.952 83.9846 20.608 89.6246 19.96C89.6726 18.064 89.1446 16.096 86.7206 16.096C85.0166 16.096 83.5766 16.912 82.6646 17.584L82.0646 16.552C83.0246 15.88 84.8006 14.896 86.8886 14.896C89.9366 14.896 91.0406 17.056 91.0406 19.888V28H89.8646L89.7206 26.392H89.6486C88.3766 27.424 86.8406 28.336 85.1846 28.336ZM85.4726 27.136C86.8886 27.136 88.1366 26.464 89.6246 25.168V21.016C84.5846 21.568 82.8806 22.768 82.8806 24.712C82.8806 26.464 84.0566 27.136 85.4726 27.136ZM98.6456 28.336C96.7496 28.336 95.0936 27.544 93.9176 26.56L94.6856 25.552C95.7656 26.464 96.9416 27.16 98.6936 27.16C100.638 27.16 101.622 26.056 101.622 24.76C101.622 23.224 100.014 22.552 98.5256 22C96.6536 21.328 94.6376 20.536 94.6376 18.328C94.6376 16.456 96.1256 14.896 98.8136 14.896C100.23 14.896 101.622 15.472 102.534 16.264L101.814 17.2C100.95 16.576 100.062 16.048 98.8136 16.048C96.8936 16.048 96.0056 17.128 96.0056 18.28C96.0056 19.672 97.4216 20.2 98.9096 20.776C100.878 21.52 103.014 22.192 103.014 24.664C103.014 26.656 101.478 28.336 98.6456 28.336ZM106.329 28V15.208H107.745V28H106.329ZM107.049 12.208C106.401 12.208 105.945 11.776 105.945 11.032C105.945 10.384 106.401 9.928 107.049 9.928C107.697 9.928 108.153 10.384 108.153 11.032C108.153 11.776 107.697 12.208 107.049 12.208ZM116.717 34.12C113.501 34.12 111.437 32.752 111.437 30.592C111.437 29.488 112.181 28.36 113.357 27.544V27.448C112.709 27.04 112.205 26.368 112.205 25.384C112.205 24.256 113.021 23.44 113.621 23.008V22.912C112.805 22.216 111.989 20.968 111.989 19.432C111.989 16.744 114.029 14.896 116.549 14.896C117.269 14.896 117.869 15.04 118.277 15.208H122.621V16.36H119.765C120.533 17.056 121.061 18.136 121.061 19.456C121.061 22.072 119.069 23.944 116.549 23.944C115.853 23.944 115.061 23.752 114.485 23.44C113.957 23.872 113.501 24.4 113.501 25.192C113.501 26.104 114.029 26.824 115.901 26.824H118.589C121.469 26.824 122.837 27.736 122.837 29.752C122.837 32.008 120.461 34.12 116.717 34.12ZM116.549 22.888C118.253 22.888 119.717 21.496 119.717 19.432C119.717 17.32 118.301 16 116.549 16C114.821 16 113.381 17.296 113.381 19.432C113.381 21.496 114.845 22.888 116.549 22.888ZM116.861 33.04C119.669 33.04 121.445 31.48 121.445 29.944C121.445 28.576 120.437 28.072 118.565 28.072H115.949C115.637 28.072 114.989 28.024 114.341 27.856C113.213 28.624 112.757 29.56 112.757 30.424C112.757 31.984 114.269 33.04 116.861 33.04ZM129.244 28.336C126.58 28.336 125.356 26.704 125.356 23.392V15.208H126.748V23.224C126.748 25.864 127.588 27.088 129.556 27.088C131.02 27.088 132.1 26.32 133.516 24.568V15.208H134.932V28H133.756L133.612 25.888H133.564C132.316 27.352 130.996 28.336 129.244 28.336ZM139.681 28V15.208H140.857L141.025 17.584H141.073C141.937 16 143.209 14.896 144.697 14.896C145.201 14.896 145.561 14.944 145.993 15.16L145.705 16.408C145.273 16.24 145.033 16.192 144.505 16.192C143.401 16.192 142.033 17.032 141.097 19.432V28H139.681ZM152.944 28.336C149.632 28.336 146.968 25.84 146.968 21.64C146.968 17.464 149.704 14.896 152.584 14.896C155.68 14.896 157.552 17.104 157.552 20.848C157.552 21.184 157.528 21.52 157.48 21.856H148.408C148.456 24.952 150.304 27.136 153.088 27.136C154.456 27.136 155.512 26.704 156.472 26.032L157.024 27.064C155.992 27.712 154.768 28.336 152.944 28.336ZM148.384 20.752H156.256C156.256 17.656 154.84 16.072 152.608 16.072C150.52 16.072 148.672 17.8 148.384 20.752Z" fill="white"/>
<defs>
<clipPath id="clip0_2_25">
<rect width="42" height="42" fill="white"/>
</clipPath>
</defs>
</svg>
